<svg id="visual" viewBox="0 0 900 600" width="900" height="600" xmlns="http://www.w3.org/2000/svg" xmlns:xlink="http://www.w3.org/1999/xlink" version="1.1"><rect x="0" y="0" width="900" height="600" fill="#ffffff"></rect><path d="M0 63L18.8 58.8C37.7 54.7 75.3 46.3 112.8 46.5C150.3 46.7 187.7 55.3 225.2 59.7C262.7 64 300.3 64 337.8 60.3C375.3 56.7 412.7 49.3 450.2 45.2C487.7 41 525.3 40 562.8 44C600.3 48 637.7 57 675.2 63C712.7 69 750.3 72 787.8 73.5C825.3 75 862.7 75 881.3 75L900 75L900 0L881.3 0C862.7 0 825.3 0 787.8 0C750.3 0 712.7 0 675.2 0C637.7 0 600.3 0 562.8 0C525.3 0 487.7 0 450.2 0C412.7 0 375.3 0 337.8 0C300.3 0 262.7 0 225.2 0C187.7 0 150.3 0 112.8 0C75.3 0 37.7 0 18.8 0L0 0Z" fill="#ce1212" stroke-linecap="round" stroke-linejoin="miter"></path></svg>